# xmcd
#
# Track frame offsets:
#	150
#	18487
#	39462
#	53087
#	66250
#	95862
#	114600
#	128997
#	157700
#
# Disc length: 2441 seconds
#
# Revision: 1
# Processed by: cddbd v1.5.1PL0 Copyright (c) Steve Scherf et al.
# Submitted via: EasyCDDAExtractor 7.0.5.1
#
DISCID=75098709
DTITLE=Russ Ballard - At The Third Strike
DYEAR=1978
DGENRE=Acid
TTITLE0=Dancer
TTITLE1=Helpless
TTITLE2=Treat Her Right
TTITLE3=Expressway To You Heart
TTITLE4=Cast The Spirit
TTITLE5=Look At Her Dance
TTITLE6=What Does It Take
TTITLE7=I'm A Scorpio
TTITLE8=My Judgement Day
EXTD=
EXTT0=
EXTT1=
EXTT2=
EXTT3=
EXTT4=
EXTT5=
EXTT6=
EXTT7=
EXTT8=
PLAYORDER=
